<?xml version="1.0" encoding="UTF-8"?>
<svg version="1.1" xmlns="http://www.w3.org/2000/svg" width="426" height="401">
<path d="M0 0 C2.88902665 3.71090493 1.97639567 7.84537646 1.4375 12.25 C1.34090088 13.04994385 1.24430176 13.8498877 1.14477539 14.67407227 C-3.28289194 47.59366499 -24.22720822 76.59830108 -50.17578125 96.4609375 C-67.67019365 109.50437686 -87.63092352 118.9197999 -107.67913818 127.32775879 C-111.50075471 128.93280162 -115.31303319 130.55969772 -119.125 132.1875 C-119.88392548 132.51155823 -120.64285095 132.83561646 -121.42477417 133.16949463 C-168.24639634 153.06820102 -168.24639634 153.06820102 -208.03515625 184.1015625 C-208.66292969 184.74867188 -209.29070312 185.39578125 -209.9375 186.0625 C-210.46214844 186.63097656 -210.98679687 187.19945312 -211.52734375 187.78515625 C-213 189 -213 189 -216 189 C-215.37054273 163.02058166 -202.40269239 140.42461216 -185 122 C-184.32582031 121.26136719 -183.65164062 120.52273437 -182.95703125 119.76171875 C-164.27272336 100.02576126 -138.2581972 89.47612563 -114.00474548 78.31867981 C-108.36817908 75.72025377 -102.81185882 72.99050582 -97.28515625 70.16796875 C-93.73125211 68.35435572 -90.14730008 66.60695519 -86.55859375 64.86328125 C-71.84779714 57.67683385 -57.71661253 49.98214734 -44 41 C-43.38608398 40.60973633 -42.77216797 40.21947266 -42.13964844 39.81738281 C-39.0489357 37.90989401 -39.0489357 37.90989401 -37 35 C-37.845625 34.72929688 -38.69125 34.45859375 -39.5625 34.1796875 C-43.10958713 32.96239169 -46.53775509 31.5651148 -50 30.125 C-62.99266706 24.88228887 -75.93433571 22.0607988 -89.79101562 20.28613281 C-91.5875547 20.05342461 -93.38043422 19.79259486 -95.171875 19.5234375 C-119.69636872 16.4755958 -147.60974519 23.99164365 -169.4375 34.6875 C-170.52716064 35.21786865 -171.61682129 35.7482373 -172.73950195 36.29467773 C-188.39281552 44.03209698 -203.49298317 53.7638297 -215.5625 66.52734375 C-217 68 -217 68 -220 70.4375 C-231.7614671 80.48375315 -241.46773752 94.64694751 -247 109 C-247.42667969 110.10085937 -247.85335937 111.20171875 -248.29296875 112.3359375 C-252.33556258 123.60544521 -254.63345811 135.28678921 -257 147 C-257.17942139 147.86415527 -257.35884277 148.72831055 -257.54370117 149.61865234 C-262.70476115 176.55336556 -258.47887845 207.14548583 -246.78515625 231.8203125 C-246 234 -246 234 -247 237 C-264.03488206 211.06369391 -276.42798192 181.49912915 -277 150 C-277.02433105 149.33323242 -277.04866211 148.66646484 -277.07373047 147.97949219 C-278.51373287 107.5699839 -265.92863627 65.55999352 -239 35 C-238.21238281 34.1028125 -237.42476562 33.205625 -236.61328125 32.28125 C-231.06545216 26.0456735 -225.41534733 20.34612278 -219 15 C-218.2575 14.2575 -217.515 13.515 -216.75 12.75 C-193.96202225 -10.03797775 -164.13922029 -22.24392737 -133 -29 C-131.94296875 -29.23460937 -130.8859375 -29.46921875 -129.796875 -29.7109375 C-86.21189317 -38.50439875 -33.92648688 -30.22751727 0 0 Z " fill="#C51C1C" transform="translate(317,50)"/>
<path d="M0 0 C3.9232832 1.30776107 4.24331862 2.77238389 6.125 6.375 C6.64320313 7.35210937 7.16140625 8.32921875 7.6953125 9.3359375 C9 12 9 12 10 15 C10.66 15 11.32 15 12 15 C18.26768798 27.39122826 23.83541471 39.44830699 27 53 C27.27384521 54.15701416 27.27384521 54.15701416 27.55322266 55.33740234 C37.6099158 98.86964425 33.43551237 142.89580721 9.60546875 181.44921875 C9.07566406 182.29097656 8.54585938 183.13273438 8 184 C7.04142396 185.66652708 6.08308674 187.33319157 5.125 189 C-17.16385676 225.62569952 -56.11504777 253.82761553 -97.55078125 264.484375 C-103.00499281 265.8073537 -108.48562562 266.95784569 -114 268 C-114.70157227 268.13277344 -115.40314453 268.26554687 -116.12597656 268.40234375 C-134.27433059 271.64735331 -153.85838993 271.09963584 -172 268 C-172.73847168 267.87641113 -173.47694336 267.75282227 -174.23779297 267.62548828 C-205.96454286 262.11853085 -234.72732731 248.07143539 -259 227 C-259.78246094 226.3503125 -260.56492187 225.700625 -261.37109375 225.03125 C-267.84188821 219.58701651 -267.84188821 219.58701651 -269 216 C-268.57467704 209.49255873 -266.67108511 203.1288233 -265.125 196.8125 C-264.86847656 195.75224609 -264.61195313 194.69199219 -264.34765625 193.59960938 C-263.83034466 191.4666739 -263.30919776 189.3346649 -262.78417969 187.20361328 C-262.25281292 185.03281791 -261.73297323 182.85917429 -261.22363281 180.68310547 C-260.97194336 179.62623535 -260.72025391 178.56936523 -260.4609375 177.48046875 C-260.23970215 176.53453857 -260.0184668 175.5886084 -259.79052734 174.61401367 C-253.64455905 154.29131986 -228.51459984 139.36729531 -211.02539062 129.93505859 C-199.82424604 124 -199.82424604 124 -196 124 C-196.64418385 130.96420907 -198.24290612 137.60771094 -199.91423416 144.39092255 C-200.42300391 146.45820663 -200.92531141 148.52696644 -201.4258728 150.59625244 C-202.84851688 156.47350863 -204.28064317 162.34841803 -205.72167969 168.22119141 C-206.60600808 171.82709519 -207.48132671 175.43508858 -208.35108566 179.04453278 C-208.68333178 180.41529714 -209.01906115 181.78522216 -209.35835648 183.15425873 C-209.83147604 185.06398788 -210.29224198 186.97676474 -210.75244141 188.88964844 C-211.0181192 189.97582458 -211.283797 191.06200073 -211.55752563 192.18109131 C-211.98877116 194.92846347 -212.08725261 196.45963794 -211 199 C-178.99816637 219.70996938 -135.91614428 220.83549102 -99.83984375 213.34375 C-97.16739112 212.68252461 -94.60413727 211.89306149 -92 211 C-90.79601562 210.59007812 -89.59203125 210.18015625 -88.3515625 209.7578125 C-78.49708798 206.28281995 -69.20680994 201.92518363 -60 197 C-59.13246094 196.54238281 -58.26492188 196.08476562 -57.37109375 195.61328125 C-49.30679503 191.06943781 -42.09377691 185.13483427 -34.82861328 179.43261719 C-33.3142459 178.24619425 -31.78583659 177.0777194 -30.25390625 175.9140625 C-25.86911878 172.19041283 -22.54765417 167.50144972 -19 163 C-18.27554688 162.12601563 -17.55109375 161.25203125 -16.8046875 160.3515625 C-2.05141457 141.89675155 5.8252575 119.50038745 12 97 C12.35578125 95.75863281 12.35578125 95.75863281 12.71875 94.4921875 C19.85749559 66.88203912 12.68502641 31.62014862 1.3203125 6.1328125 C0 3 0 3 0 0 Z " fill="#F89039" transform="translate(357,92)"/>
<path d="M0 0 C4.55503522 3.69186645 6.30259199 8.59424989 8.625 13.8125 C14.3694108 26.2705167 21.02404509 37.42613374 30.6015625 47.36328125 C32 49 32 49 32 51 C32.58910156 51.27199219 33.17820312 51.54398438 33.78515625 51.82421875 C35.94966045 52.97327653 37.57091826 54.2369221 39.4375 55.8125 C53.04341993 66.08584654 73.72879562 68.81351831 90.29394531 66.70849609 C94.87563697 66.03493711 99.4262353 65.22124864 103.9765625 64.36376953 C106.97411642 63.82487531 109.98219397 63.40899213 113 63 C112.55638392 70.09785732 106.82992301 75.41222064 102 80.125 C87.06899298 92.83383374 65.7724336 94.47201444 47 93 C30.12510742 91.01968724 15.17917415 85.31737084 0.125 77.6875 C-0.73085693 77.26202881 -1.58671387 76.83655762 -2.46850586 76.39819336 C-9.24542849 72.8428822 -14.51251262 68.2960266 -20 63 C-20.87172852 62.17105225 -21.74345703 61.34210449 -22.64160156 60.48803711 C-25.34819692 57.89105541 -28.02066059 55.26274662 -30.6875 52.625 C-31.58533203 51.75617188 -32.48316406 50.88734375 -33.40820312 49.9921875 C-49.68783644 33.86759831 -49.68783644 33.86759831 -50.125 24.25 C-50.063125 23.13625 -50.063125 23.13625 -50 22 C-40.41748101 17.44148175 -30.75427632 13.07083243 -21.0625 8.75 C-19.90194092 8.23083008 -18.74138184 7.71166016 -17.5456543 7.17675781 C-11.75194605 4.60140499 -5.96936337 2.13871669 0 0 Z " fill="#F8903A" transform="translate(222,186)"/>
<path d="M0 0 C0.89203125 0.00902344 1.7840625 0.01804687 2.703125 0.02734375 C3.37859375 0.03894531 4.0540625 0.05054687 4.75 0.0625 C4.16153212 6.3926545 2.7101695 12.06741214 0.765625 18.109375 C0.31941803 19.50981049 0.31941803 19.50981049 -0.13580322 20.9385376 C-0.76406488 22.89956254 -1.39627279 24.85932716 -2.03222656 26.81787109 C-2.99987602 29.81211637 -3.9416309 32.81375233 -4.8828125 35.81640625 C-5.49842842 37.72706958 -6.11556406 39.63724406 -6.734375 41.546875 C-7.01166443 42.44170593 -7.28895386 43.33653687 -7.574646 44.25848389 C-9.5963467 50.35802422 -11.72685385 53.21663033 -17.53564453 56.26000977 C-18.69749268 56.75198853 -18.69749268 56.75198853 -19.8828125 57.25390625 C-20.76211426 57.63546875 -21.64141602 58.01703125 -22.54736328 58.41015625 C-23.4804834 58.81105469 -24.41360352 59.21195313 -25.375 59.625 C-40.15464993 66.18173661 -54.06927749 73.46249366 -66.1953125 84.26171875 C-68.25 86.0625 -68.25 86.0625 -69.25 86.0625 C-69.56609784 79.4629939 -68.47396715 73.90179202 -66.6875 67.5625 C-66.419375 66.59924805 -66.15125 65.63599609 -65.875 64.64355469 C-61.06148231 47.945972 -53.61377432 33.28295398 -42.25 20.0625 C-41.71890625 19.43472656 -41.1878125 18.80695313 -40.640625 18.16015625 C-32.22643336 8.97535795 -21.13978899 4.02240527 -9.25 1.0625 C-8.57582031 0.8665625 -7.90164062 0.670625 -7.20703125 0.46875 C-4.76830782 -0.03749199 -2.48828684 -0.03274062 0 0 Z " fill="#C41C1C" transform="translate(188.25,75.9375)"/>
<path d="M0 0 C0.33 0 0.66 0 1 0 C0.93941406 0.55945313 0.87882812 1.11890625 0.81640625 1.6953125 C-2.35099578 32.00491346 -2.07455923 61.778453 11.21484375 89.8203125 C12 92 12 92 11 95 C-12 59.98155738 -12 59.98155738 -12 45 C-11.34 45 -10.68 45 -10 45 C-9.34 47.97 -8.68 50.94 -8 54 C-7.34 54 -6.68 54 -6 54 C-6 55.65 -6 57.3 -6 59 C-5.01 59.33 -4.02 59.66 -3 60 C-3.00222061 59.41863785 -3.00444122 58.8372757 -3.00672913 58.23829651 C-3.02895658 52.15439472 -3.04397907 46.07050458 -3.05493164 39.98657227 C-3.05994161 37.71996593 -3.06675141 35.4533628 -3.07543945 33.18676758 C-3.08765172 29.9174724 -3.09326182 26.64822018 -3.09765625 23.37890625 C-3.10281754 22.37541641 -3.10797882 21.37192657 -3.11329651 20.33802795 C-3.11452869 4.67179304 -3.11452869 4.67179304 0 0 Z " fill="#CB5657" transform="translate(59,192)"/>
<path d="M0 0 C0.33 0 0.66 0 1 0 C0.99777939 0.65954681 0.99555878 1.31909363 0.99327087 1.99862671 C0.97120106 8.84380554 0.95608627 15.68897432 0.94506836 22.53417969 C0.94002983 25.09115001 0.93319893 27.64811743 0.92456055 30.20507812 C0.91247398 33.87370517 0.90676699 37.54229423 0.90234375 41.2109375 C0.89718246 42.35992523 0.89202118 43.50891296 0.88670349 44.69271851 C0.88662796 45.7536673 0.88655243 46.81461609 0.88647461 47.90771484 C0.884254 48.84481293 0.88203339 49.78191101 0.87974548 50.74740601 C0.85172957 53.03587302 0.85172957 53.03587302 2 55 C2.06996014 56.70702735 2.08440154 58.41668003 2.0625 60.125 C2.05347656 61.03507812 2.04445313 61.94515625 2.03515625 62.8828125 C2.02355469 63.58148438 2.01195312 64.28015625 2 65 C2.66 65 3.32 65 4 65 C4.22245393 66.60226955 4.42746669 68.20696767 4.625 69.8125 C4.74101563 70.70582031 4.85703125 71.59914063 4.9765625 72.51953125 C5 75 5 75 3 78 C-2.80296839 51.84987414 -2.80296839 51.84987414 -3 41 C-3.02433105 40.33323242 -3.04866211 39.66646484 -3.07373047 38.97949219 C-3.54507415 25.75259306 -2.09183373 13.04985281 0 0 Z " fill="#C3595B" transform="translate(43,159)"/>
<path d="M0 0 C0 0.66 0 1.32 0 2 C-13.94148319 9.41694838 -13.94148319 9.41694838 -20.95703125 10.6015625 C-24.47138211 11.28696171 -27.6829923 12.67319692 -31 14 C-31 14.99 -31 15.98 -31 17 C-49.15 17 -67.3 17 -86 17 C-86 16.67 -86 16.34 -86 16 C-85.23147705 15.98541748 -84.4629541 15.97083496 -83.67114258 15.95581055 C-55.89699558 15.37015496 -30.76248463 12.59989628 -5.140625 1.3125 C-2 0 -2 0 0 0 Z " fill="#F3B881" transform="translate(290,294)"/>
<path d="M0 0 C0 0.33 0 0.66 0 1 C-4.48839017 1.16937321 -8.43581781 0.97918073 -12.828125 0.03125 C-19.99860879 -1.31684162 -27.16121867 -1.46116135 -34.4375 -1.625 C-35.85352716 -1.66290157 -37.26954281 -1.70123529 -38.68554688 -1.73999023 C-49.4570447 -2.02128177 -60.22541444 -2.11655201 -71 -2 C-70.67 -2.66 -70.34 -3.32 -70 -4 C-47.70722242 -8.10962508 -21.78271916 -5.78524874 0 0 Z " fill="#C55758" transform="translate(265,23)"/>
<path d="M0 0 C0.33 0 0.66 0 1 0 C2.92070671 10.65448628 4.59667851 21.15920719 5 32 C5.05285156 33.21558594 5.10570312 34.43117187 5.16015625 35.68359375 C5.42207415 46.9916142 3.83178255 57.8663997 2 69 C1.67 69 1.34 69 1 69 C1.00333092 68.03280281 1.00333092 68.03280281 1.00672913 67.04606628 C1.02881948 60.34671583 1.04392234 53.64737569 1.05493164 46.94799805 C1.05996641 44.44636617 1.06679461 41.94473724 1.07543945 39.44311523 C1.08754238 35.85139234 1.09323682 32.25970828 1.09765625 28.66796875 C1.10281754 27.54601608 1.10797882 26.42406342 1.11329651 25.26811218 C1.11337204 24.22725967 1.11344757 23.18640717 1.11352539 22.11401367 C1.115746 21.19690109 1.11796661 20.27978851 1.12025452 19.33488464 C1.09611358 16.84331835 1.09611358 16.84331835 0 14 C-0.06970052 11.60509014 -0.08448003 9.20832309 -0.0625 6.8125 C-0.05347656 5.54019531 -0.04445313 4.26789063 -0.03515625 2.95703125 C-0.02355469 1.98121094 -0.01195312 1.00539062 0 0 Z " fill="#ECB079" transform="translate(385,154)"/>
<path d="M0 0 C22.77 0 45.54 0 69 0 C69 0.33 69 0.66 69 1 C45.74183452 5.108698 23.26144964 4.96623796 0 1 C0 0.67 0 0.34 0 0 Z " fill="#EFB076" transform="translate(179,358)"/>
<path d="M0 0 C3.9232832 1.30776107 4.24331862 2.77238389 6.125 6.375 C6.64320313 7.35210937 7.16140625 8.32921875 7.6953125 9.3359375 C9 12 9 12 10 15 C10.66 15 11.32 15 12 15 C13.17154293 17.28929053 14.33738074 19.58118362 15.5 21.875 C15.83386719 22.52597656 16.16773438 23.17695312 16.51171875 23.84765625 C19 28.7734375 19 28.7734375 19 31 C18.34 31 17.68 31 17 31 C16.67 29.68 16.34 28.36 16 27 C15.01 27 14.02 27 13 27 C12.67 25.68 12.34 24.36 12 23 C11.01 23 10.02 23 9 23 C8.67 23.99 8.34 24.98 8 26 C6.8491847 22.60583457 5.7052339 19.20939392 4.5625 15.8125 C4.23701172 14.85279297 3.91152344 13.89308594 3.57617188 12.90429688 C3.10727539 11.50727539 3.10727539 11.50727539 2.62890625 10.08203125 C2.34088135 9.22843018 2.05285645 8.3748291 1.75610352 7.49536133 C1.00360298 5.01189087 0.46552619 2.5514032 0 0 Z " fill="#F0A86B" transform="translate(357,92)"/>
<path d="M0 0 C0.99 0 1.98 0 3 0 C1.23268035 4.9806281 -1.37496729 9.43535979 -4 14 C-4.4434375 14.78632813 -4.886875 15.57265625 -5.34375 16.3828125 C-15.760181 34.3800905 -15.760181 34.3800905 -21 37 C-21 35.02 -21 33.04 -21 31 C-20.34 31.33 -19.68 31.66 -19 32 C-18.67 30.35 -18.34 28.7 -18 27 C-17.34 27 -16.68 27 -16 27 C-16.33 25.68 -16.66 24.36 -17 23 C-15.1875 21.9375 -15.1875 21.9375 -13 21 C-12.01 21.33 -11.02 21.66 -10 22 C-10 20.35 -10 18.7 -10 17 C-9.34 17 -8.68 17 -8 17 C-8 15.68 -8 14.36 -8 13 C-7.34 13 -6.68 13 -6 13 C-5.34 10.69 -4.68 8.38 -4 6 C-3.34 6 -2.68 6 -2 6 C-2 5.34 -2 4.68 -2 4 C-1.34 4 -0.68 4 0 4 C0 2.68 0 1.36 0 0 Z " fill="#F3B983" transform="translate(369,262)"/>
<path d="M0 0 C3.20406836 2.09891623 4.60645306 3.67038744 5.88671875 7.2734375 C6.18513672 8.0984375 6.48355469 8.9234375 6.79101562 9.7734375 C7.08685547 10.63195312 7.38269531 11.49046875 7.6875 12.375 C7.99494141 13.22578125 8.30238281 14.0765625 8.61914062 14.953125 C10.03615788 18.93441637 11.35305772 22.80781403 12 27 C8.09996079 23.5551141 5.81174388 19.61293381 3.3125 15.125 C2.90966797 14.43019531 2.50683594 13.73539062 2.09179688 13.01953125 C-0.16324948 9.00804175 -1.56864049 5.66453163 -2 1 C-1.34 0.67 -0.68 0.34 0 0 Z " fill="#C34443" transform="translate(59,260)"/>
<path d="M0 0 C0.99 0 1.98 0 3 0 C1.50097552 4.86955831 -1.26944253 7.87593415 -4.6875 11.5 C-5.19216797 12.05558594 -5.69683594 12.61117187 -6.21679688 13.18359375 C-9.81928457 17.05478786 -13.61579932 20.04411124 -18 23 C-18 22.01 -18 21.02 -18 20 C-17.34 20 -16.68 20 -16 20 C-16 19.01 -16 18.02 -16 17 C-15.34 17 -14.68 17 -14 17 C-14 16.34 -14 15.68 -14 15 C-13.34 15 -12.68 15 -12 15 C-12 13.68 -12 12.36 -12 11 C-10.02 11 -8.04 11 -6 11 C-6.99 10.01 -7.98 9.02 -9 8 C-8.34 7.01 -7.68 6.02 -7 5 C-3.375 4.3125 -3.375 4.3125 0 4 C0 2.68 0 1.36 0 0 Z " fill="#C5484A" transform="translate(291,117)"/>
<path d="M0 0 C0.66 0 1.32 0 2 0 C2.33 2.64 2.66 5.28 3 8 C3.66 7.01 4.32 6.02 5 5 C7 4.1875 7 4.1875 9 4 C9.66 4.66 10.32 5.32 11 6 C9.40517782 7.67561054 7.79883156 9.34025934 6.1875 11 C4.84751953 12.3921875 4.84751953 12.3921875 3.48046875 13.8125 C1 16 1 16 -2 16 C-1.85764543 14.27054347 -1.71095618 12.54144346 -1.5625 10.8125 C-1.48128906 9.84957031 -1.40007812 8.88664063 -1.31640625 7.89453125 C-1.02333849 5.21350398 -0.57296246 2.6337014 0 0 Z " fill="#C34140" transform="translate(103,223)"/>
<path d="M0 0 C0.99134301 3.11782505 0.96777672 5.14442136 0.19555664 8.30957031 C-0.00472641 9.15013977 -0.20500946 9.99070923 -0.41136169 10.85675049 C-0.63526077 11.75480408 -0.85915985 12.65285767 -1.08984375 13.578125 C-1.42490685 14.96798615 -1.42490685 14.96798615 -1.76673889 16.38592529 C-2.48167771 19.3427947 -3.20940862 22.29634474 -3.9375 25.25 C-4.42467429 27.25500292 -4.91101263 29.26020916 -5.39648438 31.265625 C-6.58797145 36.17949456 -7.79093998 41.09042607 -9 46 C-9.33 46 -9.66 46 -10 46 C-9.67 41.38 -9.34 36.76 -9 32 C-8.34 32 -7.68 32 -7 32 C-6.93941406 31.34773438 -6.87882813 30.69546875 -6.81640625 30.0234375 C-6.36480009 25.31283783 -5.85804961 20.65798362 -5 16 C-4.34 16 -3.68 16 -3 16 C-3.03480469 15.34773437 -3.06960937 14.69546875 -3.10546875 14.0234375 C-3.27610432 8.51434628 -3.0363889 4.80761576 0 0 Z " fill="#EFB37C" transform="translate(158,224)"/>
<path d="M0 0 C0.90878906 0.144375 1.81757813 0.28875 2.75390625 0.4375 C18.1432292 2.71038462 32.63626062 1.97106393 48 0 C45 2 45 2 42 2 C42 2.66 42 3.32 42 4 C36.82221598 4.07431132 31.64474431 4.12867808 26.46655273 4.16479492 C24.70608104 4.17985553 22.9456467 4.20030826 21.18530273 4.22631836 C18.65078497 4.26282229 16.11676448 4.27975354 13.58203125 4.29296875 C12.79850784 4.30845261 12.01498444 4.32393646 11.2077179 4.33988953 C6.62824321 4.34129105 3.63965937 3.86222125 0 1 C0 0.67 0 0.34 0 0 Z " fill="#F1B17A" transform="translate(280,251)"/>
<path d="M0 0 C-0.33 0.99 -0.66 1.98 -1 3 C-1.99 3 -2.98 3 -4 3 C-4.33 4.32 -4.66 5.64 -5 7 C-5.61875 7.061875 -6.2375 7.12375 -6.875 7.1875 C-7.57625 7.455625 -8.2775 7.72375 -9 8 C-9.68132451 9.66072849 -10.34742127 11.327767 -11 13 C-12.8125 14.0625 -12.8125 14.0625 -15 15 C-16.68889872 16.3050581 -18.3603279 17.63360658 -20 19 C-20.99 18.34 -21.98 17.68 -23 17 C-5.00804829 0 -5.00804829 0 0 0 Z " fill="#BE3232" transform="translate(158,152)"/>
<path d="M0 0 C0.33 0 0.66 0 1 0 C1.09765625 6.15234375 1.09765625 6.15234375 1 8 C0.67 8.33 0.34 8.66 0 9 C-0.29509061 10.40950688 -0.53705963 11.83026105 -0.75390625 13.25390625 C-0.88603516 14.10791016 -1.01816406 14.96191406 -1.15429688 15.84179688 C-1.28900391 16.73962891 -1.42371094 17.63746094 -1.5625 18.5625 C-1.70107422 19.46419922 -1.83964844 20.36589844 -1.98242188 21.29492188 C-2.32528051 23.52941433 -2.66430023 25.7644227 -3 28 C-3.66 28 -4.32 28 -5 28 C-5.33 30.97 -5.66 33.94 -6 37 C-6.66 37 -7.32 37 -8 37 C-7.53907531 28.66484489 -5.61018104 20.91176867 -3.4375 12.875 C-3.10814453 11.63234375 -2.77878906 10.3896875 -2.43945312 9.109375 C-1.63312214 6.07102635 -0.81984213 3.03472534 0 0 Z " fill="#F0B37D" transform="translate(98,264)"/>
<path d="M0 0 C0.33 0 0.66 0 1 0 C0.85691406 1.24523437 0.71382812 2.49046875 0.56640625 3.7734375 C-0.29299513 12.36745126 -0.62868294 21.00138793 -1.0625 29.625 C-1.15407615 31.41016759 -1.24587117 33.19532396 -1.33789062 34.98046875 C-1.56111892 39.32018725 -1.7813794 43.66004704 -2 48 C-2.33 48 -2.66 48 -3 48 C-3.02490464 43.03784542 -3.04295606 38.07572805 -3.05493164 33.11352539 C-3.05992943 31.42894862 -3.06672989 29.74437612 -3.07543945 28.05981445 C-3.08770622 25.62450094 -3.09327398 23.18924526 -3.09765625 20.75390625 C-3.10281754 20.01290176 -3.10797882 19.27189728 -3.11329651 18.50843811 C-3.11474786 4.67212179 -3.11474786 4.67212179 0 0 Z " fill="#A53332" transform="translate(59,192)"/>
<path d="M0 0 C1.84414045 3.14924555 2.24744568 5.43858087 2.23046875 9.0703125 C2.22853516 10.05 2.22660156 11.0296875 2.22460938 12.0390625 C2.21236328 13.05742187 2.20011719 14.07578125 2.1875 15.125 C2.18685547 16.12015625 2.18621094 17.1153125 2.18554688 18.140625 C2.08753199 34.82493601 2.08753199 34.82493601 0 39 C-0.66 39 -1.32 39 -2 39 C-1.93941406 38.351521 -1.87882812 37.70304199 -1.81640625 37.03491211 C-0.67746444 24.66534694 0.3585147 12.42850959 0 0 Z " fill="#EFC097" transform="translate(372,149)"/>
<path d="M0 0 C0.66 0 1.32 0 2 0 C0.66828162 6.83199273 -1.3670288 13.00293813 -4 19.4375 C-4.35578125 20.33404297 -4.7115625 21.23058594 -5.078125 22.15429688 C-7.73700221 28.73700221 -7.73700221 28.73700221 -10 31 C-10 28.69 -10 26.38 -10 24 C-9.01 23.67 -8.02 23.34 -7 23 C-7 20.69 -7 18.38 -7 16 C-6.34 16 -5.68 16 -5 16 C-4.34 13.36 -3.68 10.72 -3 8 C-2.34 8 -1.68 8 -1 8 C-0.67 5.36 -0.34 2.72 0 0 Z " fill="#F0B581" transform="translate(382,231)"/>
<path d="M0 0 C-1.22025063 3.6607519 -2.126491 3.92339441 -5.4375 5.6875 C-6.24058594 6.12449219 -7.04367188 6.56148437 -7.87109375 7.01171875 C-10 8 -10 8 -12 8 C-12 5.03 -12 2.06 -12 -1 C-7.31034294 -2.11658501 -4.46236469 -1.80619523 0 0 Z " fill="#C53939" transform="translate(149,203)"/>
<path d="M0 0 C-0.33856271 5.41700329 -3.5622688 9.06059033 -7 13 C-9.875 15.5 -9.875 15.5 -12 17 C-11.67 15.35 -11.34 13.7 -11 12 C-10.34 12 -9.68 12 -9 12 C-9 10.68 -9 9.36 -9 8 C-8.34 8 -7.68 8 -7 8 C-7 7.34 -7 6.68 -7 6 C-6.34 6 -5.68 6 -5 6 C-5 5.34 -5 4.68 -5 4 C-4.67 3.67 -4.34 3.34 -4 3 C-4.99 2.34 -5.98 1.68 -7 1 C-4 0 -4 0 0 0 Z " fill="#EF9B56" transform="translate(335,249)"/>
<path d="M0 0 C0.99 0 1.98 0 3 0 C2.86722656 0.71285156 2.73445312 1.42570312 2.59765625 2.16015625 C1.62594212 7.43010955 0.7082546 12.6880905 0 18 C3.8726362 20.46440486 7.76960042 22.25807076 12 24 C12 24.33 12 24.66 12 25 C7.06441016 25.61694873 3.64839716 24.51078636 -0.4296875 21.84375 C-3.15112595 18.64842923 -2.57772241 15.23814048 -2.28125 11.23046875 C-2.14203125 10.12638672 -2.14203125 10.12638672 -2 9 C-1.34 9 -0.68 9 0 9 C0 6.03 0 3.06 0 0 Z " fill="#EFA96C" transform="translate(145,272)"/>
<path d="M0 0 C3.3 0 6.6 0 10 0 C10 0.66 10 1.32 10 2 C11.32 2.33 12.64 2.66 14 3 C13.67 3.66 13.34 4.32 13 5 C14.423125 4.938125 14.423125 4.938125 15.875 4.875 C19 5 19 5 21 7 C23.31765729 7.71927295 25.65095874 8.3909893 28 9 C24.83486685 10.03405583 23.01917673 9.96250093 19.8828125 8.890625 C19.11066406 8.63023437 18.33851563 8.36984375 17.54296875 8.1015625 C16.74503906 7.82054687 15.94710937 7.53953125 15.125 7.25 C14.33480469 6.98445313 13.54460937 6.71890625 12.73046875 6.4453125 C8.30132089 4.92716864 4.14172538 3.21069586 0 1 C0 0.67 0 0.34 0 0 Z " fill="#F2AD71" transform="translate(229,266)"/>
<path d="M0 0 C2.29013653 3.4352048 2.17842973 4.985331 2 9 C1.34 9 0.68 9 0 9 C-0.10957031 9.65226563 -0.21914063 10.30453125 -0.33203125 10.9765625 C-1.26508962 16.1197623 -2.34784083 20.41899779 -5 25 C-5.66 25 -6.32 25 -7 25 C-4.74868611 16.64284994 -2.39214186 8.31785366 0 0 Z " fill="#EFAB6F" transform="translate(369,189)"/>
<path d="M0 0 C-3.46473918 4.97114752 -7.9949645 8.64720595 -13 12 C-13.66 12 -14.32 12 -15 12 C-15 10.68 -15 9.36 -15 8 C-14.34 8 -13.68 8 -13 8 C-12.67 7.01 -12.34 6.02 -12 5 C-10.68 5 -9.36 5 -8 5 C-8 4.01 -8 3.02 -8 2 C-4.77208445 -0.1519437 -3.71599191 -0.20086443 0 0 Z " fill="#F2A461" transform="translate(330,317)"/>
<path d="M0 0 C1.32 0.66 2.64 1.32 4 2 C1.94082225 7.60553944 -0.72692212 11.79089036 -5 16 C-5.33 16 -5.66 16 -6 16 C-6 14.02 -6 12.04 -6 10 C-5.01 10.495 -5.01 10.495 -4 11 C-3.67 9.35 -3.34 7.7 -3 6 C-2.34 6 -1.68 6 -1 6 C-1.20625 5.38125 -1.4125 4.7625 -1.625 4.125 C-1.74875 3.42375 -1.8725 2.7225 -2 2 C-1.34 1.34 -0.68 0.68 0 0 Z " fill="#F2A966" transform="translate(354,283)"/>
<path d="M0 0 C0.66 0.33 1.32 0.66 2 1 C2.66 1 3.32 1 4 1 C3.67 2.32 3.34 3.64 3 5 C0.69 5 -1.62 5 -4 5 C-4.226875 5.61875 -4.45375 6.2375 -4.6875 6.875 C-6.40053356 9.64848291 -7.99919547 9.85683637 -11 11 C-11.680625 11.721875 -12.36125 12.44375 -13.0625 13.1875 C-14.0215625 14.0846875 -14.0215625 14.0846875 -15 15 C-17.12109375 14.61328125 -17.12109375 14.61328125 -19 14 C-18.04738281 13.32453125 -17.09476562 12.6490625 -16.11328125 11.953125 C-14.8462995 11.0521602 -13.57937548 10.15111423 -12.3125 9.25 C-11.68666016 8.8065625 -11.06082031 8.363125 -10.41601562 7.90625 C-6.85526857 5.37084895 -3.38477246 2.76994764 0 0 Z " fill="#F1AC6E" transform="translate(320,273)"/>
<path d="M0 0 C1.41377341 2.63904371 2.37240135 5.07120629 3 8 C4.32 8.33 5.64 8.66 7 9 C5.69013727 10.16962686 4.3770374 11.33562944 3.0625 12.5 C2.33160156 13.1496875 1.60070312 13.799375 0.84765625 14.46875 C-1 16 -1 16 -2 16 C-2.20674944 10.21101581 -1.59162079 5.57067277 0 0 Z " fill="#B74543" transform="translate(121,146)"/>
<path d="M0 0 C2.00124361 0.32578384 4.00102872 0.66055205 6 1 C7.2375 1.1546875 7.2375 1.1546875 8.5 1.3125 C11.82718198 2.22747505 14.22010405 3.99588897 17 6 C16.01 6.33 15.02 6.66 14 7 C14 7.66 14 8.32 14 9 C10.40241608 7.67726488 7.36262865 6.0805802 4.1875 3.9375 C3.39730469 3.41027344 2.60710937 2.88304687 1.79296875 2.33984375 C1.20128906 1.89769531 0.60960938 1.45554687 0 1 C0 0.67 0 0.34 0 0 Z " fill="#F29D53" transform="translate(109,327)"/>
<path d="M0 0 C-0.33 1.32 -0.66 2.64 -1 4 C-3.97 3.505 -3.97 3.505 -7 3 C-7.33 3.99 -7.66 4.98 -8 6 C-10.64 6 -13.28 6 -16 6 C-11.6726368 2.19716567 -5.97149347 -2.62745713 0 0 Z " fill="#BC2E30" transform="translate(175,80)"/>
<path d="M0 0 C-3.35911113 2.23940742 -6.8640549 3.95956038 -10.5 5.6875 C-11.17675781 6.02072266 -11.85351562 6.35394531 -12.55078125 6.69726562 C-17.65066964 9.11644345 -17.65066964 9.11644345 -21 8 C-18 6 -18 6 -16 6 C-15.7525 5.360625 -15.505 4.72125 -15.25 4.0625 C-14 2 -14 2 -12.0625 1.3125 C-11.381875 1.209375 -10.70125 1.10625 -10 1 C-6.52674819 -0.1577506 -3.63932552 -0.06866652 0 0 Z " fill="#C73E3F" transform="translate(163,77)"/>
<path d="M0 0 C20.51893408 -0.47966339 20.51893408 -0.47966339 30 2 C30.99 2.99 31.98 3.98 33 5 C22.11 3.68 11.22 2.36 0 1 C0 0.67 0 0.34 0 0 Z " fill="#C76667" transform="translate(214,68)"/>
<path d="M0 0 C0.33 1.32 0.66 2.64 1 4 C0.01 4 -0.98 4 -2 4 C-2.33 6.31 -2.66 8.62 -3 11 C-5.31 11.33 -7.62 11.66 -10 12 C-10 12.99 -10 13.98 -10 15 C-11.32 14.67 -12.64 14.34 -14 14 C-12.989375 13.175 -11.97875 12.35 -10.9375 11.5 C-6.86170014 8.02309318 -3.42759123 4.10477491 0 0 Z " fill="#EDAC73" transform="translate(336,258)"/>
<path d="M0 0 C0 0.66 0 1.32 0 2 C-1.7015625 2.4021875 -1.7015625 2.4021875 -3.4375 2.8125 C-4.613125 3.204375 -5.78875 3.59625 -7 4 C-7.33 4.99 -7.66 5.98 -8 7 C-10.31 7.33 -12.62 7.66 -15 8 C-14.67 10.64 -14.34 13.28 -14 16 C-16.78319327 12.86890758 -17.16426757 11.12722261 -17 7 C-14.54379149 5.82866942 -12.08525083 4.66278278 -9.625 3.5 C-8.92632812 3.16613281 -8.22765625 2.83226562 -7.5078125 2.48828125 C-2.2265625 0 -2.2265625 0 0 0 Z " fill="#EFB27D" transform="translate(189,201)"/>
<path d="M0 0 C0.66 0 1.32 0 2 0 C-0.66666667 8 -3.33333333 16 -6 24 C-6.33 24 -6.66 24 -7 24 C-6.67021516 16.39845954 -4.87217429 10.02680781 -2 3 C-1.34 3 -0.68 3 0 3 C0 2.01 0 1.02 0 0 Z " fill="#C14A4C" transform="translate(71,150)"/>
<path d="M0 0 C0 0.33 0 0.66 0 1 C-12.87 1.99 -12.87 1.99 -26 3 C-26 2.34 -26 1.68 -26 1 C-17.7858353 -2.55207122 -8.63429663 -1.13236677 0 0 Z " fill="#C2504F" transform="translate(213,68)"/>
<path d="M0 0 C1.32 0.33 2.64 0.66 4 1 C-11.35674157 12 -11.35674157 12 -15 12 C-15 11.34 -15 10.68 -15 10 C-14.01 10 -13.02 10 -12 10 C-11.67 8.68 -11.34 7.36 -11 6 C-7.535 5.505 -7.535 5.505 -4 5 C-4 4.34 -4 3.68 -4 3 C-4.66 2.67 -5.32 2.34 -6 2 C-4.02 1.67 -2.04 1.34 0 1 C0 0.67 0 0.34 0 0 Z " fill="#F1B179" transform="translate(311,329)"/>
<path d="M0 0 C2.22777065 3.34165598 3.6892376 6.79841055 5.1875 10.5 C5.47302734 11.17675781 5.75855469 11.85351562 6.05273438 12.55078125 C8.11798022 17.64605933 8.11798022 17.64605933 7 21 C5.62771643 19.11723895 4.27771299 17.2182231 2.9375 15.3125 C2.18339844 14.25675781 1.42929688 13.20101563 0.65234375 12.11328125 C-1 9 -1 9 -0.74609375 6.35546875 C-0.49988281 5.57816406 -0.25367188 4.80085938 0 4 C0 2.68 0 1.36 0 0 Z " fill="#CA7578" transform="translate(63,266)"/>
<path d="M0 0 C0.89203125 0.00902344 1.7840625 0.01804687 2.703125 0.02734375 C3.37859375 0.03894531 4.0540625 0.05054687 4.75 0.0625 C4.42 2.7025 4.09 5.3425 3.75 8.0625 C3.54632813 7.41796875 3.34265625 6.7734375 3.1328125 6.109375 C1.8832065 3.75096128 1.8832065 3.75096128 -1.0703125 3.453125 C-2.16085938 3.40671875 -3.25140625 3.3603125 -4.375 3.3125 C-6.01855469 3.22742188 -6.01855469 3.22742188 -7.6953125 3.140625 C-8.53835937 3.11484375 -9.38140625 3.0890625 -10.25 3.0625 C-9.25 1.0625 -9.25 1.0625 -7.515625 0.44140625 C-4.96855716 0.01543111 -2.58143831 -0.03396629 0 0 Z " fill="#BC4243" transform="translate(188.25,75.9375)"/>
<path d="M0 0 C4.25983217 3.49914785 6.15672955 7.92120163 8 13 C8 13.66 8 14.32 8 15 C7.01 15 6.02 15 5 15 C2.50494038 12.50494038 2.64051624 11.32671112 2.375 7.875 C2.30023438 6.96492187 2.22546875 6.05484375 2.1484375 5.1171875 C2.09945312 4.41851562 2.05046875 3.71984375 2 3 C-0.64 3 -3.28 3 -6 3 C-3 1 -3 1 0 0 Z " fill="#F0A360" transform="translate(222,186)"/>
<path d="M0 0 C-0.33 2.64 -0.66 5.28 -1 8 C-1.33 7.34 -1.66 6.68 -2 6 C-5.37941348 4.87352884 -6.60907672 5.19263731 -10 6 C-11.66666667 6.33333333 -13.33333333 6.66666667 -15 7 C-12.73946101 4.47138427 -10.60099936 3.16143472 -7.5 1.8125 C-6.7265625 1.46832031 -5.953125 1.12414062 -5.15625 0.76953125 C-3 0 -3 0 0 0 Z " fill="#F1B27C" transform="translate(161,216)"/>
<path d="M0 0 C2.31 0 4.62 0 7 0 C3.46508194 2.35661204 -0.17771758 3.93506813 -4.0625 5.625 C-4.79533203 5.94984375 -5.52816406 6.2746875 -6.28320312 6.609375 C-11.75251116 9 -11.75251116 9 -14 9 C-14 8.34 -14 7.68 -14 7 C-12.02 6.67 -10.04 6.34 -8 6 C-8 5.01 -8 4.02 -8 3 C-5.36 2.67 -2.72 2.34 0 2 C0 1.34 0 0.68 0 0 Z " fill="#CB5E5F" transform="translate(196,179)"/>
<path d="M0 0 C3.6607519 1.22025063 3.92339441 2.126491 5.6875 5.4375 C6.34298828 6.64212891 6.34298828 6.64212891 7.01171875 7.87109375 C8 10 8 10 8 12 C7.34 12 6.68 12 6 12 C5.67 13.32 5.34 14.64 5 16 C4.1605118 13.89828133 3.32860344 11.79353375 2.5 9.6875 C2.0359375 8.51574219 1.571875 7.34398438 1.09375 6.13671875 C0 3 0 3 0 0 Z " fill="#EEBD8F" transform="translate(357,92)"/>
<path d="M0 0 C-0.33 1.32 -0.66 2.64 -1 4 C-1.78375 4.061875 -2.5675 4.12375 -3.375 4.1875 C-4.24125 4.455625 -5.1075 4.72375 -6 5 C-6.433125 6.2065625 -6.433125 6.2065625 -6.875 7.4375 C-7.24625 8.283125 -7.6175 9.12875 -8 10 C-11.625 11.3125 -11.625 11.3125 -15 12 C-12.01377035 7.71540964 -5.65866548 0 0 0 Z " fill="#F1AD73" transform="translate(128,234)"/>
<path d="M0 0 C5.03061594 -0.51332816 8.80513602 -0.59992032 13.0625 2.375 C14.031875 3.24125 15.00125 4.1075 16 5 C16 5.66 16 6.32 16 7 C10.3856009 5.43551329 5.13189662 3.83604813 0 1 C0 0.67 0 0.34 0 0 Z " fill="#F2BA86" transform="translate(137,344)"/>
<path d="M0 0 C0 5.34374011 -2.14715125 9.02234411 -5.5625 12.9375 C-8 15 -8 15 -10 15 C-8.59601721 10.89889238 -6.62912962 8.01910841 -3.875 4.6875 C-3.15054688 3.80449219 -2.42609375 2.92148438 -1.6796875 2.01171875 C-1.12539062 1.34785156 -0.57109375 0.68398437 0 0 Z " fill="#BE3A3A" transform="translate(146,96)"/>
<path d="M0 0 C0.66 0 1.32 0 2 0 C2.103125 0.556875 2.20625 1.11375 2.3125 1.6875 C3.12944635 4.43541044 4.52070457 6.55594668 6 9 C6 9.66 6 10.32 6 11 C5.01 11 4.02 11 3 11 C2.67 11.99 2.34 12.98 2 14 C-0.3992233 9.35150485 -0.19957409 5.08913926 0 0 Z " fill="#F1A662" transform="translate(363,104)"/>
<path d="M0 0 C2.64 0 5.28 0 8 0 C4.6284861 2.24767593 1.09930172 3.92054736 -2.5625 5.625 C-3.24763672 5.94984375 -3.93277344 6.2746875 -4.63867188 6.609375 C-9.75641741 9 -9.75641741 9 -12 9 C-12 8.34 -12 7.68 -12 7 C-11.01 7 -10.02 7 -9 7 C-9 6.34 -9 5.68 -9 5 C-6.03 4.34 -3.06 3.68 0 3 C0 2.01 0 1.02 0 0 Z " fill="#BA3F42" transform="translate(165,130)"/>
<path d="M0 0 C7.03787373 1.52487264 14.0203196 3.22850751 21 5 C21 5.33 21 5.66 21 6 C13.42733125 6.5939348 7.12481267 4.43286286 0 2 C0 1.34 0 0.68 0 0 Z " fill="#F0B883" transform="translate(173,303)"/>
<path d="M0 0 C2.31 0 4.62 0 7 0 C4.54074507 2.45925493 2.20353073 3.34371127 -1 4.6875 C-2.0725 5.14511719 -3.145 5.60273438 -4.25 6.07421875 C-5.1575 6.37972656 -6.065 6.68523437 -7 7 C-7.66 6.67 -8.32 6.34 -9 6 C-5.67692308 2.06153846 -5.67692308 2.06153846 -2.25 1.75 C-1.5075 1.8325 -0.765 1.915 0 2 C0 1.34 0 0.68 0 0 Z " fill="#C95A59" transform="translate(219,169)"/>
<path d="M0 0 C3 1 3 1 4.20263672 2.79199219 C5.09773428 5.27063956 5.09186412 6.72994572 4.7578125 9.328125 C4.66113281 10.12734375 4.56445312 10.9265625 4.46484375 11.75 C4.35269531 12.575 4.24054688 13.4 4.125 14.25 C3.96837891 15.51070312 3.96837891 15.51070312 3.80859375 16.796875 C3.54995635 18.86597421 3.27642363 20.93320179 3 23 C2.67 23 2.34 23 2 23 C2 17.06 2 11.12 2 5 C1.34 4.67 0.68 4.34 0 4 C0 2.68 0 1.36 0 0 Z " fill="#CB6969" transform="translate(314,49)"/>
<path d="M0 0 C-1.98 0.33 -3.96 0.66 -6 1 C-6 1.66 -6 2.32 -6 3 C-9.96 3 -13.92 3 -18 3 C-18 2.34 -18 1.68 -18 1 C-15.75152519 0.63627613 -13.50113812 0.28435904 -11.25 -0.0625 C-9.99703125 -0.25972656 -8.7440625 -0.45695313 -7.453125 -0.66015625 C-4.49983411 -0.95080818 -2.7397586 -0.98935727 0 0 Z " fill="#EFB988" transform="translate(328,252)"/>
<path d="M0 0 C1.98 0 3.96 0 6 0 C2.72291137 3.67033927 -0.71522208 5.69281189 -5 8 C-5.66 6.02 -6.32 4.04 -7 2 C-6.34 2 -5.68 2 -5 2 C-5 2.66 -5 3.32 -5 4 C-3.68 4 -2.36 4 -1 4 C-0.67 2.68 -0.34 1.36 0 0 Z " fill="#C74E50" transform="translate(122,217)"/>
<path d="M0 0 C0.33 0 0.66 0 1 0 C0.93941406 0.55945313 0.87882812 1.11890625 0.81640625 1.6953125 C0.04062176 9.11897335 -0.49569705 16.55348409 -1 24 C-1.33 24 -1.66 24 -2 24 C-2.05802698 20.56257082 -2.09360486 17.12526747 -2.125 13.6875 C-2.14175781 12.71103516 -2.15851562 11.73457031 -2.17578125 10.72851562 C-2.18222656 9.79072266 -2.18867187 8.85292969 -2.1953125 7.88671875 C-2.20578613 7.02264404 -2.21625977 6.15856934 -2.22705078 5.26831055 C-2 3 -2 3 0 0 Z " fill="#D47272" transform="translate(59,192)"/>
<path d="M0 0 C-3.0622744 2.48627517 -6.1457054 4.09989404 -9.75 5.6875 C-10.73484375 6.12449219 -11.7196875 6.56148437 -12.734375 7.01171875 C-13.48203125 7.33785156 -14.2296875 7.66398438 -15 8 C-15 7.01 -15 6.02 -15 5 C-13.68 5 -12.36 5 -11 5 C-11 4.01 -11 3.02 -11 2 C-7.17679443 0.57741188 -4.08718695 -0.24042276 0 0 Z " fill="#C95C5C" transform="translate(165,196)"/>
<path d="M0 0 C0.66 0.33 1.32 0.66 2 1 C0.44298069 5.67105792 -2.08447373 9.08705685 -5 13 C-7 10 -7 10 -7 8 C-5.68 8 -4.36 8 -3 8 C-3.33 6.68 -3.66 5.36 -4 4 C-3.01 4 -2.02 4 -1 4 C-1 3.34 -1 2.68 -1 2 C-1.66 1.67 -2.32 1.34 -3 1 C-2.01 0.67 -1.02 0.34 0 0 Z " fill="#CA5557" transform="translate(301,104)"/>
<path d="M0 0 C0.33 0 0.66 0 1 0 C2.22899346 6.06815522 3.27560214 11.79895188 3 18 C1 17 1 17 0 14 C-0.06970052 11.60509014 -0.08448003 9.20832309 -0.0625 6.8125 C-0.05347656 5.54019531 -0.04445313 4.26789063 -0.03515625 2.95703125 C-0.02355469 1.98121094 -0.01195312 1.00539062 0 0 Z " fill="#F0B077" transform="translate(385,154)"/>
<path d="M0 0 C0.33 0.99 0.66 1.98 1 3 C0.67 3.66 0.34 4.32 0 5 C-0.66 5 -1.32 5 -2 5 C-2 6.98 -2 8.96 -2 11 C-2.99 11.495 -2.99 11.495 -4 12 C-4.66 11.67 -5.32 11.34 -6 11 C-6 11.99 -6 12.98 -6 14 C-6.66 14 -7.32 14 -8 14 C-6.6744419 10.37723685 -5.05653045 7.36494652 -2.875 4.1875 C-2.33617188 3.39730469 -1.79734375 2.60710937 -1.2421875 1.79296875 C-0.83226563 1.20128906 -0.42234375 0.60960938 0 0 Z " fill="#C75455" transform="translate(70,95)"/>
<path d="M0 0 C1.30660357 4.29727397 0.6596762 7.60215865 0 12 C-0.66 11.67 -1.32 11.34 -2 11 C-2.66 12.32 -3.32 13.64 -4 15 C-4.66 15 -5.32 15 -6 15 C-4.40109514 9.80355921 -2.25861997 4.93387858 0 0 Z " fill="#F3B47D" transform="translate(359,219)"/>
<path d="M0 0 C-1.99179811 2.87354273 -3.27254347 3.05248778 -6.79296875 3.73046875 C-8.25637947 3.89601295 -9.72138394 4.04793087 -11.1875 4.1875 C-11.93708984 4.26935547 -12.68667969 4.35121094 -13.45898438 4.43554688 C-15.30475918 4.63540784 -17.15225433 4.81926538 -19 5 C-13.41631348 1.27754232 -6.71593812 -0.53020564 0 0 Z " fill="#C65150" transform="translate(177,24)"/>
<path d="M0 0 C0.66 0.33 1.32 0.66 2 1 C1.01 1.33 0.02 1.66 -1 2 C-1 2.99 -1 3.98 -1 5 C-0.34 5 0.32 5 1 5 C1 5.99 1 6.98 1 8 C-1 7 -1 7 -2 4 C-2.7425 4.350625 -3.485 4.70125 -4.25 5.0625 C-7.21122875 6.0720098 -8.12062561 5.87980884 -11 5 C-9.21289414 4.13633178 -7.4201535 3.28431406 -5.625 2.4375 C-4.62726563 1.96183594 -3.62953125 1.48617187 -2.6015625 0.99609375 C-1.74304688 0.66738281 -0.88453125 0.33867188 0 0 Z " fill="#C5484A" transform="translate(206,127)"/>
<path d="M0 0 C0.33 0.66 0.66 1.32 1 2 C2.65 2 4.3 2 6 2 C2.2440786 5.42931954 -2.23466745 6.56429083 -7 8 C-6.67 7.01 -6.34 6.02 -6 5 C-4.68 5 -3.36 5 -2 5 C-2 4.34 -2 3.68 -2 3 C-1.34 3 -0.68 3 0 3 C0 2.01 0 1.02 0 0 Z " fill="#C95856" transform="translate(176,186)"/>
<path d="M0 0 C0.33 0.99 0.66 1.98 1 3 C-0.86759004 6.51968892 -2.1486353 8.57431765 -5.75 10.375 C-6.4925 10.58125 -7.235 10.7875 -8 11 C-5.71461395 6.91036181 -3.04293074 3.53637896 0 0 Z " fill="#C44A4B" transform="translate(82,80)"/>
<path d="M0 0 C2.91488977 2.6234008 4.88503898 5.71816394 7 9 C6.67 9.66 6.34 10.32 6 11 C4.35 10.67 2.7 10.34 1 10 C1.020625 9.278125 1.04125 8.55625 1.0625 7.8125 C1.00179441 5.08074862 0.60741465 2.65743909 0 0 Z " fill="#F2A96B" transform="translate(235,211)"/>
<path d="M0 0 C0.33 0.66 0.66 1.32 1 2 C2.98 2 4.96 2 7 2 C4.8125 4.0625 4.8125 4.0625 2 6 C-0.8125 5.75 -0.8125 5.75 -3 5 C-2.625 3.0625 -2.625 3.0625 -2 1 C-1.34 0.67 -0.68 0.34 0 0 Z " fill="#BE2C2C" transform="translate(132,145)"/>
<path d="M0 0 C0 3 0 3 -1.625 4.75 C-4.77514641 6.40797179 -6.62025695 5.84493576 -10 5 C-3.63636364 0 -3.63636364 0 0 0 Z " fill="#CA5B5B" transform="translate(244,109)"/>
<path d="M0 0 C0.33 0.66 0.66 1.32 1 2 C-4.625 7.90625 -4.625 7.90625 -8.75 8.1875 C-9.4925 8.125625 -10.235 8.06375 -11 8 C-7.45960866 5.0843836 -3.8373228 2.49872182 0 0 Z " fill="#C45454" transform="translate(276,89)"/>
<path d="M0 0 C0.66 0.33 1.32 0.66 2 1 C0.515 2.485 0.515 2.485 -1 4 C-0.67 4.66 -0.34 5.32 0 6 C-6.625 9 -6.625 9 -10 9 C-6.7 6.03 -3.4 3.06 0 0 Z " fill="#BD3C41" transform="translate(157,86)"/>
<path d="M0 0 C1.98 0.66 3.96 1.32 6 2 C6 2.99 6 3.98 6 5 C7.32 5.33 8.64 5.66 10 6 C9.67 7.32 9.34 8.64 9 10 C7.49410612 8.71520959 5.99542625 7.42195918 4.5 6.125 C3.6646875 5.40570313 2.829375 4.68640625 1.96875 3.9453125 C1.3190625 3.30335938 0.669375 2.66140625 0 2 C0 1.34 0 0.68 0 0 Z " fill="#EFB078" transform="translate(90,310)"/>
<path d="M0 0 C1.43931117 0.45261358 2.87638999 0.91232979 4.3125 1.375 C5.11300781 1.63023437 5.91351563 1.88546875 6.73828125 2.1484375 C9 3 9 3 12 5 C10.20741442 4.91306859 8.41584856 4.80489496 6.625 4.6875 C5.62726563 4.62949219 4.62953125 4.57148438 3.6015625 4.51171875 C2.74304688 4.34285156 1.88453125 4.17398437 1 4 C0.34 3.01 -0.32 2.02 -1 1 C-0.67 0.67 -0.34 0.34 0 0 Z " fill="#F1AE70" transform="translate(157,297)"/>
<path d="M0 0 C-7.2 6 -7.2 6 -12 6 C-12 5.34 -12 4.68 -12 4 C-10.68 4 -9.36 4 -8 4 C-8.33 3.01 -8.66 2.02 -9 1 C-5.92677456 0.08941469 -3.19902639 -0.08886184 0 0 Z " fill="#EFAB6F" transform="translate(322,267)"/>
<path d="M0 0 C2.475 0.495 2.475 0.495 5 1 C5.33 1.99 5.66 2.98 6 4 C7.49985609 5.66710346 7.49985609 5.66710346 9 7 C8.34 7.66 7.68 8.32 7 9 C5.83037314 7.69013727 4.66437056 6.3770374 3.5 5.0625 C2.8503125 4.33160156 2.200625 3.60070312 1.53125 2.84765625 C0 1 0 1 0 0 Z " fill="#F2B175" transform="translate(180,225)"/>
<path d="M0 0 C0.33 0 0.66 0 1 0 C1.29341888 5.67276511 1.00559652 8.99067246 -2 14 C-2.66 14 -3.32 14 -4 14 C-3.52188823 12.22888156 -3.0424722 10.45811517 -2.5625 8.6875 C-2.29566406 7.70136719 -2.02882813 6.71523437 -1.75390625 5.69921875 C-1.21920575 3.78482474 -0.62855462 1.88566385 0 0 Z " fill="#F0B47D" transform="translate(366,200)"/>
<path d="M0 0 C2.875 -0.125 2.875 -0.125 6 0 C6.66 0.66 7.32 1.32 8 2 C10.31765729 2.71927295 12.65095874 3.3909893 15 4 C11.50448721 5.21405922 9.30906703 4.777272 5.8125 3.6875 C4.93207031 3.42324219 4.05164063 3.15898437 3.14453125 2.88671875 C1 2 1 2 0 0 Z " fill="#F0B481" transform="translate(242,271)"/>
<path d="M0 0 C0 0.66 0 1.32 0 2 C-0.66 2 -1.32 2 -2 2 C-2 2.66 -2 3.32 -2 4 C-2.66 4 -3.32 4 -4 4 C-4.33 4.66 -4.66 5.32 -5 6 C-6.65 4.68 -8.3 3.36 -10 2 C-6.38026598 0.68373308 -3.90432869 0 0 0 Z " fill="#F3913E" transform="translate(332,251)"/>
<path d="M0 0 C0.66 0 1.32 0 2 0 C2.22245393 1.60226955 2.42746669 3.20696767 2.625 4.8125 C2.74101563 5.70582031 2.85703125 6.59914062 2.9765625 7.51953125 C3 10 3 10 1 13 C-1.42857143 4.57142857 -1.42857143 4.57142857 0 0 Z " fill="#C95254" transform="translate(45,224)"/>
<path d="M0 0 C0.66 0.33 1.32 0.66 2 1 C1.67 1.99 1.34 2.98 1 4 C-0.92578125 4.765625 -0.92578125 4.765625 -3.3125 5.25 C-4.48232422 5.50523437 -4.48232422 5.50523437 -5.67578125 5.765625 C-8.07651867 6.00771617 -9.71809588 5.7310448 -12 5 C-10.04578965 4.13644222 -8.08648653 3.28440066 -6.125 2.4375 C-5.03445312 1.96183594 -3.94390625 1.48617187 -2.8203125 0.99609375 C-1.88960937 0.66738281 -0.95890625 0.33867187 0 0 Z " fill="#F4B57F" transform="translate(201,195)"/>
<path d="M0 0 C-0.33 0.99 -0.66 1.98 -1 3 C-1.99 3 -2.98 3 -4 3 C-4.33 4.32 -4.66 5.64 -5 7 C-7.31 7.33 -9.62 7.66 -12 8 C-4.57142857 0 -4.57142857 0 0 0 Z " fill="#C64A4D" transform="translate(158,152)"/>
<path d="M0 0 C1.83979073 2.7596861 2.48323221 4.29741882 3.1875 7.4375 C3.45626953 8.58025391 3.45626953 8.58025391 3.73046875 9.74609375 C4.0154963 12.12958496 3.72875415 13.73104204 3 16 C0.1647887 10.4477112 -0.37952295 6.19887485 0 0 Z " fill="#F1B580" transform="translate(381,138)"/>
<path d="M0 0 C0.99 0 1.98 0 3 0 C2.65120368 3.25543229 1.97866739 4.01873107 -0.5625 6.25 C-1.366875 6.8275 -2.17125 7.405 -3 8 C-3 6.35 -3 4.7 -3 3 C-2.34 3 -1.68 3 -1 3 C-0.67 2.01 -0.34 1.02 0 0 Z " fill="#BF393C" transform="translate(90,122)"/>
<path d="M0 0 C0.99 0 1.98 0 3 0 C2 3 2 3 -1 5 C-0.34 5.66 0.32 6.32 1 7 C-0.32 7.33 -1.64 7.66 -3 8 C-3.66 6.35 -4.32 4.7 -5 3 C-4.34 2.34 -3.68 1.68 -3 1 C-2.01 1.33 -1.02 1.66 0 2 C0 1.34 0 0.68 0 0 Z " fill="#CA2E2D" transform="translate(142,80)"/>
<path d="M0 0 C1.60540659 0.78914921 3.20928016 1.58141765 4.8125 2.375 C5.70582031 2.81585938 6.59914062 3.25671875 7.51953125 3.7109375 C10 5 10 5 13 7 C7.36529617 7.5497272 4.61012242 5.95047835 0 3 C0 2.01 0 1.02 0 0 Z " fill="#F2B782" transform="translate(144,290)"/>
<path d="M0 0 C1.98 0.99 3.96 1.98 6 3 C6 3.33 6 3.66 6 4 C5.0925 4.28875 4.185 4.5775 3.25 4.875 C0.67797092 5.76531776 -1.61346766 6.71494413 -4 8 C-3.34 6.68 -2.68 5.36 -2 4 C-1.34 4 -0.68 4 0 4 C0 2.68 0 1.36 0 0 Z " fill="#F39E55" transform="translate(260,242)"/>
<path d="M0 0 C0.33 0 0.66 0 1 0 C1.33 3.63 1.66 7.26 2 11 C0.68 10.67 -0.64 10.34 -2 10 C-1.54177532 6.53058454 -1.10868317 3.32604951 0 0 Z " fill="#C64243" transform="translate(50,133)"/>
<path d="M0 0 C2.475 0.99 2.475 0.99 5 2 C2.6875 4.0625 2.6875 4.0625 0 6 C-0.99 5.67 -1.98 5.34 -3 5 C-2.01 3.35 -1.02 1.7 0 0 Z " fill="#BF3331" transform="translate(148,137)"/>
<path d="M0 0 C0.66 0.33 1.32 0.66 2 1 C2 1.66 2 2.32 2 3 C2.66 3 3.32 3 4 3 C4.66 4.98 5.32 6.96 6 9 C5.01 9 4.02 9 3 9 C2.71125 8.38125 2.4225 7.7625 2.125 7.125 C1.06279958 4.86674235 1.06279958 4.86674235 -1 3 C-0.67 2.01 -0.34 1.02 0 0 Z " fill="#EFB37A" transform="translate(365,104)"/>
<path d="M0 0 C-3.19990508 2.74277578 -6.00499382 4.6302836 -10 6 C-9.75 4.125 -9.75 4.125 -9 2 C-6.04454879 -0.11103658 -3.56144099 -0.19785783 0 0 Z " fill="#C34F4F" transform="translate(132,92)"/>
<path d="M0 0 C4.29 0.33 8.58 0.66 13 1 C13 1.66 13 2.32 13 3 C13.66 3.33 14.32 3.66 15 4 C9.76119922 3.44854729 5.02649303 2.57077907 0 1 C0 0.67 0 0.34 0 0 Z " fill="#F3BA87" transform="translate(163,354)"/>
<path d="M0 0 C0.33 1.32 0.66 2.64 1 4 C0.01 4 -0.98 4 -2 4 C-2.33 6.31 -2.66 8.62 -3 11 C-3.99 10.34 -4.98 9.68 -6 9 C-4.3619751 5.48994665 -2.96865509 2.54456151 0 0 Z " fill="#F2A663" transform="translate(336,258)"/>
<path d="M0 0 C1 2 1 2 0.25 4.4375 C-0.93098981 6.85852911 -1.9831559 8.25818009 -4 10 C-4.66 9.67 -5.32 9.34 -6 9 C-4.47291037 5.56404834 -2.40072955 2.88087546 0 0 Z " fill="#F3AD71" transform="translate(108,250)"/>
<path d="M0 0 C4.12751449 0.60698743 7.3321148 2.03810791 11 4 C11 4.66 11 5.32 11 6 C6.95743617 4.77782954 3.50711041 3.37245704 0 1 C0 0.67 0 0.34 0 0 Z " fill="#EFB47D" transform="translate(218,260)"/>
<path d="M0 0 C0.66 0 1.32 0 2 0 C2.19878036 3.57804656 2.04108797 5.99208089 0 9 C-0.99 9.33 -1.98 9.66 -3 10 C-2.01 6.7 -1.02 3.4 0 0 Z " fill="#C85956" transform="translate(109,205)"/>
<path d="M0 0 C0.99 0.33 1.98 0.66 3 1 C1.515 6.445 1.515 6.445 0 12 C-0.33 12 -0.66 12 -1 12 C-1.02712066 10.56260487 -1.04645067 9.12506137 -1.0625 7.6875 C-1.07410156 6.88699219 -1.08570313 6.08648437 -1.09765625 5.26171875 C-1 3 -1 3 0 0 Z " fill="#C54E4F" transform="translate(186,91)"/>
<path d="M0 0 C0.99 0 1.98 0 3 0 C2.34 1.65 1.68 3.3 1 5 C0.34 5 -0.32 5 -1 5 C-1.66 6.32 -2.32 7.64 -3 9 C-3.66 9 -4.32 9 -5 9 C-4.67 8.01 -4.34 7.02 -4 6 C-3.34 6 -2.68 6 -2 6 C-2 5.34 -2 4.68 -2 4 C-1.34 4 -0.68 4 0 4 C0 2.68 0 1.36 0 0 Z " fill="#EEA868" transform="translate(369,262)"/>
<path d="M0 0 C1.65 0 3.3 0 5 0 C5.12375 0.804375 5.2475 1.60875 5.375 2.4375 C5.684375 3.7059375 5.684375 3.7059375 6 5 C6.66 5.33 7.32 5.66 8 6 C5 6 5 6 3.61328125 4.6875 C2.40885417 3.125 1.20442708 1.5625 0 0 Z " fill="#F1A361" transform="translate(191,237)"/>
<path d="M0 0 C1.98 0 3.96 0 6 0 C4.68 2.31 3.36 4.62 2 7 C1.67 7 1.34 7 1 7 C0.67 4.69 0.34 2.38 0 0 Z " fill="#C73C3F" transform="translate(80,131)"/>
<path d="M0 0 C-0.33 0.99 -0.66 1.98 -1 3 C-2.32 3 -3.64 3 -5 3 C-5 3.66 -5 4.32 -5 5 C-6.65 5 -8.3 5 -10 5 C-6.99385784 1.69324363 -4.54252119 0 0 0 Z " fill="#CE6868" transform="translate(218,122)"/>
<path d="M0 0 C2.8125 0.1875 2.8125 0.1875 6 1 C7.875 3.5625 7.875 3.5625 9 6 C5.06326356 4.68775452 2.77280706 3.08089673 0 0 Z " fill="#F0B179" transform="translate(109,327)"/>
<path d="M0 0 C0.66 0 1.32 0 2 0 C2.33 2.64 2.66 5.28 3 8 C2.01 7.67 1.02 7.34 0 7 C-1.125 2.25 -1.125 2.25 0 0 Z " fill="#B83639" transform="translate(61,266)"/>
<path d="M0 0 C2.64465038 3.1254959 3.84414715 6.08788267 5 10 C4.34 10.66 3.68 11.32 3 12 C2.49166409 10.75336669 1.99368855 9.50250613 1.5 8.25 C1.2215625 7.55390625 0.943125 6.8578125 0.65625 6.140625 C0 4 0 4 0 0 Z " fill="#EDAD72" transform="translate(230,201)"/>
<path d="M0 0 C-2.50248865 1.66832577 -4.41149187 2.62381674 -7.1875 3.625 C-8.26064453 4.01558594 -8.26064453 4.01558594 -9.35546875 4.4140625 C-9.89816406 4.60742188 -10.44085938 4.80078125 -11 5 C-9.07089686 -0.78730941 -5.38986894 -0.20339128 0 0 Z " fill="#BF4546" transform="translate(163,77)"/>
<path d="M0 0 C2.3828125 -0.29296875 2.3828125 -0.29296875 5.125 -0.1875 C6.03507812 -0.16042969 6.94515625 -0.13335937 7.8828125 -0.10546875 C8.58148438 -0.07066406 9.28015625 -0.03585937 10 0 C5.96707255 2.2344598 2.55032566 2.54496743 -2 3 C-1.34 2.01 -0.68 1.02 0 0 Z " fill="#F3B985" transform="translate(252,355)"/>
<path d="M0 0 C-3.42346555 3.14958831 -6.44262737 3.56179109 -11 4 C-7.95841042 -0.56238437 -5.1474794 -0.11438843 0 0 Z " fill="#EEA768" transform="translate(280,300)"/>
<path d="M0 0 C0.33 0 0.66 0 1 0 C1 1.65 1 3.3 1 5 C0.01 5 -0.98 5 -2 5 C-2.33 6.32 -2.66 7.64 -3 9 C-3.66 8.67 -4.32 8.34 -5 8 C-3.6299034 5.0490227 -2.06764583 2.51713405 0 0 Z " fill="#F0B479" transform="translate(342,250)"/>
<path d="M0 0 C0.66 0 1.32 0 2 0 C1.67 1.32 1.34 2.64 1 4 C-1.31 4.66 -3.62 5.32 -6 6 C-4 4 -2 2 0 0 Z " fill="#F2B47D" transform="translate(126,234)"/>
<path d="M0 0 C0.33 0.66 0.66 1.32 1 2 C2.65 2 4.3 2 6 2 C4.6875 4 4.6875 4 3 6 C2.01 6 1.02 6 0 6 C0 4.02 0 2.04 0 0 Z " fill="#C46769" transform="translate(101,233)"/>
<path d="M0 0 C1.37562854 1.28965176 2.70766393 2.62689293 4 4 C4 4.66 4 5.32 4 6 C3.34 6 2.68 6 2 6 C2 5.01 2 4.02 2 3 C-0.64 3 -3.28 3 -6 3 C-3 1 -3 1 0 0 Z " fill="#EBB380" transform="translate(222,186)"/>
<path d="M0 0 C1.11196276 3.33588828 1.09809194 4.70572419 0 8 C-2.0625 9.3125 -2.0625 9.3125 -4 10 C-2.99806563 6.20696275 -2.18975773 3.28463659 0 0 Z " fill="#C15051" transform="translate(61,109)"/>
<path d="M0 0 C0 3.20395416 -0.74335022 5.09399739 -2 8 C-3.32 7.67 -4.64 7.34 -6 7 C-4.02 4.69 -2.04 2.38 0 0 Z " fill="#BE4746" transform="translate(146,96)"/>
<path d="M0 0 C2.97 0 5.94 0 9 0 C9 0.99 9 1.98 9 3 C5.26512223 2.5020163 3.18762365 2.12508244 0 0 Z " fill="#F1B27C" transform="translate(154,351)"/>
<path d="M0 0 C2.125 0.9375 2.125 0.9375 4 2 C2.35 3.65 0.7 5.3 -1 7 C-1.33 5.02 -1.66 3.04 -2 1 C-1.34 0.67 -0.68 0.34 0 0 Z " fill="#F3A665" transform="translate(343,299)"/>
<path d="M0 0 C2.96 4.44 2.96 4.44 4 7 C3.67 7.99 3.34 8.98 3 10 C-1.06153846 4.58461538 -1.06153846 4.58461538 -0.75 1.625 C-0.5025 1.08875 -0.255 0.5525 0 0 Z " fill="#DBAEAE" transform="translate(67,277)"/>
<path d="M0 0 C0.33 0.66 0.66 1.32 1 2 C0.06421005 4.35981813 -0.93347808 6.69631264 -2 9 C-2.33 9 -2.66 9 -3 9 C-3.1875 5.625 -3.1875 5.625 -3 2 C-2.01 1.34 -1.02 0.68 0 0 Z " fill="#F2BB82" transform="translate(375,253)"/>
<path d="M0 0 C4.455 0.99 4.455 0.99 9 2 C9 2.33 9 2.66 9 3 C6.69 3.33 4.38 3.66 2 4 C1.34 2.68 0.68 1.36 0 0 Z " fill="#F0B37E" transform="translate(270,248)"/>
<path d="M0 0 C3.93846154 3.32307692 3.93846154 3.32307692 4.25 6.75 C4.1675 7.4925 4.085 8.235 4 9 C1.24338912 6.51015791 -0.60746455 4.79450934 -1 1 C-0.67 0.67 -0.34 0.34 0 0 Z " fill="#EFAE75" transform="translate(176,216)"/>
<path d="M0 0 C1.98 0 3.96 0 6 0 C1.25 4.875 1.25 4.875 -1 6 C-0.67 4.02 -0.34 2.04 0 0 Z " fill="#C95456" transform="translate(267,140)"/>
<path d="M0 0 C-1.90401138 1.90401138 -3.33425686 2.93520439 -6.046875 3.19921875 C-8.03233273 3.1886578 -10.0169914 3.09915043 -12 3 C-12 2.67 -12 2.34 -12 2 C-10.37787941 1.47026689 -8.75218416 0.95146893 -7.125 0.4375 C-6.22007812 0.14746094 -5.31515625 -0.14257812 -4.3828125 -0.44140625 C-2 -1 -2 -1 0 0 Z " fill="#F4C497" transform="translate(270,303)"/>
<path d="M0 0 C0.66 0.33 1.32 0.66 2 1 C-0.25 3.5625 -0.25 3.5625 -3 6 C-4.32 5.67 -5.64 5.34 -7 5 C-4.69 3.35 -2.38 1.7 0 0 Z " fill="#F1B887" transform="translate(308,282)"/>
<path d="M0 0 C0.33 0 0.66 0 1 0 C1.125 5.75 1.125 5.75 0 8 C-0.66 8 -1.32 8 -2 8 C-2 6.02 -2 4.04 -2 2 C-1.34 2 -0.68 2 0 2 C0 1.34 0 0.68 0 0 Z " fill="#EFA76B" transform="translate(377,245)"/>
<path d="M0 0 C1.70884005 1.62339805 3.37446717 3.29319053 5 5 C5 5.66 5 6.32 5 7 C3.68 6.67 2.36 6.34 1 6 C0.67 4.02 0.34 2.04 0 0 Z " fill="#F1AE75" transform="translate(242,222)"/>
<path d="M0 0 C0.66 0.33 1.32 0.66 2 1 C-0.75 3.0625 -0.75 3.0625 -4 5 C-6.203125 4.62109375 -6.203125 4.62109375 -8 4 C-6.71349294 3.30289269 -5.42059335 2.61757124 -4.125 1.9375 C-3.40570313 1.55464844 -2.68640625 1.17179688 -1.9453125 0.77734375 C-1.30335938 0.52082031 -0.66140625 0.26429688 0 0 Z " fill="#F1BC8B" transform="translate(154,218)"/>
<path d="M0 0 C2.31 0 4.62 0 7 0 C5.35 1.65 3.7 3.3 2 5 C2 4.01 2 3.02 2 2 C1.34 2 0.68 2 0 2 C0 1.34 0 0.68 0 0 Z " fill="#CB4C4C" transform="translate(121,154)"/>
<path d="M0 0 C0.99 0 1.98 0 3 0 C2 3 2 3 -1.0625 4.6875 C-2.031875 5.120625 -3.00125 5.55375 -4 6 C-3.67 4.68 -3.34 3.36 -3 2 C-2.01 2 -1.02 2 0 2 C0 1.34 0 0.68 0 0 Z " fill="#C86261" transform="translate(256,150)"/>
<path d="M0 0 C0.99 0 1.98 0 3 0 C3 1.65 3 3.3 3 5 C1.35 5.33 -0.3 5.66 -2 6 C-1.01 4.68 -0.02 3.36 1 2 C0.34 1.67 -0.32 1.34 -1 1 C-0.67 0.67 -0.34 0.34 0 0 Z " fill="#C55150" transform="translate(279,83)"/>
<path d="M0 0 C-4.455 1.485 -4.455 1.485 -9 3 C-9 2.01 -9 1.02 -9 0 C-3.375 -1.125 -3.375 -1.125 0 0 Z " fill="#F1B47D" transform="translate(281,349)"/>
<path d="M0 0 C2.97 0 5.94 0 9 0 C6.08235 1.9451 4.37462715 2.45276317 1 3 C0.67 2.01 0.34 1.02 0 0 Z " fill="#F4B279" transform="translate(280,345)"/>
<path d="M0 0 C1.43655854 -0.08131463 2.8744483 -0.13933559 4.3125 -0.1875 C5.51326172 -0.23970703 5.51326172 -0.23970703 6.73828125 -0.29296875 C9.47851584 0.06198392 10.29171079 0.89366282 12 3 C10.37419034 2.88601335 8.74932843 2.75844341 7.125 2.625 C6.22007812 2.55539062 5.31515625 2.48578125 4.3828125 2.4140625 C2 2 2 2 0 0 Z " fill="#F3A666" transform="translate(137,344)"/>
<path d="M0 0 C0.33 0.66 0.66 1.32 1 2 C1.99 2.33 2.98 2.66 4 3 C4 4.98 4 6.96 4 9 C1.49701566 6.06171403 0.53069061 3.82097239 0 0 Z " fill="#D26D70" transform="translate(53,254)"/>
<path d="M0 0 C-0.33 1.65 -0.66 3.3 -1 5 C-1.33 4.01 -1.66 3.02 -2 2 C-2.99 2.33 -3.98 2.66 -5 3 C-5.66 2.34 -6.32 1.68 -7 1 C-4 0 -4 0 0 0 Z " fill="#EBB688" transform="translate(335,249)"/>
<path d="M0 0 C0.98120464 3.05263664 0.98120464 4.94736336 0 8 C-0.66 7.67 -1.32 7.34 -2 7 C-2 3 -2 3 0 0 Z " fill="#CD5252" transform="translate(118,189)"/>
<path d="M0 0 C2.97 0.495 2.97 0.495 6 1 C3.94766315 3.2477975 2.99332739 4.0022242 0 5 C0 3.35 0 1.7 0 0 Z " fill="#C94F51" transform="translate(243,156)"/>
<path d="M0 0 C0.66 0 1.32 0 2 0 C1.34 2.97 0.68 5.94 0 9 C-0.33 9 -0.66 9 -1 9 C-1.09765625 2.84765625 -1.09765625 2.84765625 -1 1 C-0.67 0.67 -0.34 0.34 0 0 Z " fill="#C14A4D" transform="translate(182,106)"/>
<path d="M0 0 C0.99 0.33 1.98 0.66 3 1 C3.8125 2.875 3.8125 2.875 4 5 C3.01 6.485 3.01 6.485 2 8 C0.74335022 5.09399739 0 3.20395416 0 0 Z " fill="#F1EAE2" transform="translate(357,92)"/>
<path d="M0 0 C0.33 0.66 0.66 1.32 1 2 C0.06421005 4.35981813 -0.93347808 6.69631264 -2 9 C-2.33 9 -2.66 9 -3 9 C-2.4140625 2.84765625 -2.4140625 2.84765625 -2 1 C-1.34 0.67 -0.68 0.34 0 0 Z " fill="#CA6460" transform="translate(311,86)"/>
<path d="M0 0 C0.66 0.33 1.32 0.66 2 1 C1.67 2.32 1.34 3.64 1 5 C-0.65 5.33 -2.3 5.66 -4 6 C-2.68 4.02 -1.36 2.04 0 0 Z " fill="#C76060" transform="translate(90,71)"/>
<path d="M0 0 C2.31 1.65 4.62 3.3 7 5 C5.68 5.33 4.36 5.66 3 6 C0 2.25 0 2.25 0 0 Z " fill="#CE666A" transform="translate(303,40)"/>
</svg>
